<?xml version="1.0" encoding="UTF-8"?>
<svg width="99px" height="99px" viewBox="0 0 99 99" version="1.1" xmlns="http://www.w3.org/2000/svg" xmlns:xlink="http://www.w3.org/1999/xlink">
    <!-- Generator: Sketch 56.3 (81716) - https://sketch.com -->
    <title>succed</title>
    <desc>Created with Sketch.</desc>
    <g id="页面1" stroke="none" stroke-width="1" fill="none" fill-rule="evenodd">
        <g id="基金赎回成功" transform="translate(-138.000000, -94.000000)">
            <g id="succed" transform="translate(138.000000, 94.000000)">
                <g>
                    <circle id="Oval-Copy-7" fill="#EBF3FF" cx="49.5" cy="49.5" r="49.5"></circle>
                    <rect id="Combined-Shape-Copy-7" fill="#6A9AF8" opacity="0.200193482" transform="translate(46.308695, 49.931014) rotate(-10.000000) translate(-46.308695, -49.931014) " x="21.3086946" y="22.9310138" width="50" height="54" rx="4"></rect>
                    <rect id="Combined-Shape-Copy-3" fill="#6A9AF8" x="25" y="22" width="49" height="54" rx="4"></rect>
                    <path d="M47.2159091,56.7058824 L56.3529412,56.7058824 C57.8148714,56.7058824 59,57.891011 59,59.3529412 C59,60.8148714 57.8148714,62 56.3529412,62 L44.6470588,62 C44.6405116,62 44.6339699,61.9999762 44.6274339,61.9999288 C44.6209464,61.9999762 44.6144532,62 44.6079545,62 C43.167621,62 42,60.832379 42,59.3920455 L42,34.6079545 C42,33.167621 43.167621,32 44.6079545,32 C46.0482881,32 47.2159091,33.167621 47.2159091,34.6079545 L47.2159091,56.7058824 Z" id="Combined-Shape-Copy" fill="#E6F0FF" transform="translate(50.500000, 47.000000) scale(1, -1) rotate(-223.000000) translate(-50.500000, -47.000000) "></path>
                    <g id="Group-3-Copy" transform="translate(60.423231, 33.641573) rotate(-342.000000) translate(-60.423231, -33.641573) translate(56.423231, 28.641573)" fill="#E6F0FF">
                        <path d="M6.95910577,5.10796546 C5.3022267,5.10796546 3.95910577,3.54095055 3.95910577,1.60796546 C3.95910577,3.54095055 2.61598484,5.10796546 0.959105768,5.10796546 C2.61598484,5.10796546 3.95910577,6.67498037 3.95910577,8.60796546 C3.95910577,6.67498037 5.3022267,5.10796546 6.95910577,5.10796546" id="Fill-1" transform="translate(3.959106, 5.107965) rotate(-18.000000) translate(-3.959106, -5.107965) "></path>
                    </g>
                </g>
            </g>
        </g>
    </g>
</svg>